<svg xmlns="http://www.w3.org/2000/svg" viewBox="0 0 841.89 495.55"><defs><style>.cls-1{fill:#4f4f56;}.cls-2{fill:#88868b;stroke:#8e8ea8;}.cls-10,.cls-11,.cls-12,.cls-16,.cls-17,.cls-2,.cls-3,.cls-5,.cls-6{stroke-miterlimit:10;}.cls-11,.cls-2,.cls-3,.cls-5,.cls-6{stroke-width:3.26px;}.cls-3{fill:#f9154b;stroke:#962c2c;}.cls-4{fill:#30475f;}.cls-5{fill:#dde4ef;stroke:#d1c7c7;}.cls-6{fill:#262629;stroke:#020101;}.cls-7{fill:#ba7f60;}.cls-8{fill:#aa8073;}.cls-9{fill:#b2958d;}.cls-10{fill:#243241;stroke:#2d3354;}.cls-10,.cls-12,.cls-17{stroke-width:0.82px;}.cls-11,.cls-19{fill:#bc4815;}.cls-11{stroke:#964127;}.cls-12{fill:#e25f2b;stroke:#993c26;}.cls-13{fill:#dba49c;}.cls-14{fill:#5a4943;}.cls-15{fill:#d34929;}.cls-16{fill:#2a2825;stroke:#43434f;stroke-width:1.63px;}.cls-17{fill:#7f7e7c;stroke:#8d8da0;}.cls-18{fill:#933716;}.cls-20{fill:#e29fa5;}.cls-21{fill:#ce848c;}.cls-22{fill:#c67b86;}.cls-23{fill:#bc7985;}.cls-24{fill:#e0b8b3;}</style></defs><title>imagen_2</title><g id="Capa_2" data-name="Capa 2"><g id="Capa_1-2" data-name="Capa 1"><rect class="cls-1" y="3.67" width="841.89" height="487.52"/><polygon class="cls-2" points="356 491.88 359.26 469.8 360.07 375.76 362.52 369.22 407.36 366.76 410.62 237.56 389.42 162.32 413.06 87.9 444.04 24.12 465.24 5.31 839.84 2.85 839.84 493.91 356 491.88"/><polygon class="cls-3" points="390.24 159.38 370.67 224.81 367.98 252.94 362.52 310.11 363.33 368.91 408.17 366.42 409.37 262.92 409.8 225.64 390.24 159.38"/><polygon class="cls-4" points="413.06 87.64 369.86 2.04 377.19 1.22 416.32 80.3 413.06 87.64"/><polygon class="cls-5" points="369.23 237.73 407.45 259.87 407.33 308.8 360.49 304.75 369.23 237.73"/><path class="cls-6" d="M440.78,135.74l0,3.26-2.41,250.29v20.38a105.55,105.55,0,0,0,0,24.46c1.63,12.23,13,22,13,22l16.31,6.52,333.44,5.71,39.13,4.07V106.94l-395.4-.55"/><polygon class="cls-7" points="819.06 427.6 817.43 315.61 708.19 301.51 710.63 404.38 819.06 427.6"/><polygon class="cls-8" points="841.35 313.65 816.62 316.73 818.25 426.79 841.89 415.88 841.35 313.65"/><polygon class="cls-8" points="838.63 313.47 708.19 303.69 816.62 316.73 838.63 313.47"/><polygon class="cls-9" points="707.05 306.95 705.74 273.52 840.26 272.7 841.35 313.65 707.05 306.95"/><polyline class="cls-10" points="486.44 363.26 487.25 383.15 497.04 453.57 503.56 495 596.5 493.34 608.73 446.12 623.4 495 741.61 493.34 730.2 423.75 721.23 398.89 718.79 380.66 708.19 359.12 611.99 382.32 559 375.69 482.9 359.95"/><path class="cls-11" d="M483.72,358.18s2.17,5.62,15.22,9S534.81,375,534.81,375l25,3.37,34.78,7.86,9.79,1.13,20.65-4.5,88.05-28.08,2.17-4.49L712,334.59,707.64,320l-94.57,23.59-17.39,2.24H571.77l-23.92-6.73-21.74-3.37-29.35-7.87H485.89Z"/><polygon class="cls-12" points="486.98 0.41 759.83 3.65 763.08 3.69 776.13 16.79 792.43 27.71 819.61 37.54 840.26 48.46 840.26 106.34 731.56 112.89 709.82 156.58 709.82 225.38 713.08 299.64 709.82 322.58 597.86 347.69 569.59 350.97 550.03 341.14 532.63 340.05 514.16 334.59 488.07 330.22 476.11 318.21 485.89 245.04 480.46 267.97 454.37 271.25 422.85 266.88 406.54 234.12 403.28 187.16 431.54 52.83 435.89 37.54 486.98 0.41"/><path class="cls-13" d="M520.27,203.41l7.13-1.84,2,.62.21,3.26s.4,3.05-.62,3.46-7.13,2-7.13,2l-1.63-7.54"/><path class="cls-13" d="M455.25,192l-1-4.68,2.25-1.43h4.07l2.86,1.43A17.56,17.56,0,0,1,464,190c0,.61-2,2.44-2.86,2.65S455.25,192,455.25,192Z"/><polygon class="cls-8" points="654.38 264.55 654.38 117.81 840.26 106.34 841.35 262.38 654.38 264.55"/><polygon class="cls-14" points="654.38 263.47 710.03 284.12 840.26 288.47 841.35 262.38 654.38 263.47"/><polygon class="cls-15" points="400.02 206.94 407.63 236.29 417.41 259.12 438.06 267.81 468.5 263.47 484.81 242.81 463.07 244.99 455.46 242.81 446.76 237.38 441.33 221.07 435.89 212.38 436.98 204.77 420.67 198.25 400.02 206.94"/><polygon class="cls-16" points="438.34 180.99 431.81 173.65 434.67 169.57 480.73 167.13 485.21 168.76 520.27 203.41 474.62 218.49 438.34 180.99"/><polygon class="cls-17" points="428.55 166.72 432.22 163.87 478.69 160.2 485.21 163.46 524.35 200.56 520.27 203.41 480.73 167.13 434.67 169.57 431.81 173.65 428.55 166.72"/><polygon class="cls-18" points="598.94 384.39 597.31 309.56 591.61 206.78 587.53 137.71 585.08 99.88 585.08 71.1 581.01 39.86 575.3 15.19 570.41 2.85 573.67 2.85 580.19 21.77 586.71 39.03 590.79 116.33 598.13 215.82 606.28 352.32 611.17 385.21 598.94 384.39"/><polygon class="cls-19" points="605.47 24.87 614.43 94.98 621.77 94.98 611.17 24.05 605.47 24.87"/><polygon class="cls-19" points="472.58 108.02 479.92 94.98 488.07 83.57 509.26 73.78 481.55 108.02 480.73 123.51 492.14 132.48 487.25 153.68 487.25 158.57 472.58 108.02"/><polygon class="cls-19" points="493.77 158.57 498.67 133.3 532.09 116.99 493.77 158.57"/><polygon class="cls-19" points="498.67 111.28 500.4 108.65 519.05 80.3 533.72 84.38 550.84 72.97 515.79 103.13 498.67 111.28"/><polygon class="cls-19" points="724.49 79.49 783.19 31.39 788.08 28.13 761.18 56.66 724.49 79.49"/><polygon class="cls-19" points="726.12 89.27 767.7 61.55 784.01 49.33 804.39 39.54 763.63 72.97 726.12 89.27"/><path class="cls-18" d="M488.88,169.17c-.81-2.57,7.34-57.06,7.34-57.06l13.86-9-22,61.55Z"/><polygon class="cls-20" points="424.88 189.55 427.33 185.06 430.59 182.62 435.89 182.21 458.72 182.62 462.39 182.62 465.24 187.51 465.65 191.18 465.65 193.63 454.24 196.89 439.97 199.33 433.04 200.15 425.7 197.29 424.88 189.55"/><polyline class="cls-21" points="439.15 201.37 439.98 216.04 445.33 220.94 451.1 220.12 464.27 215.23 472.51 214.01 484.87 210.75 495.57 207.49 501.75 205.85 517.4 202.19 519.05 198.52 517.4 193.22 512.87 190.36 502.99 190.36 486.1 191.59 472.1 195.26 465.51 197.7 440.8 201.78"/><polygon class="cls-22" points="447.71 221.34 449.34 226.64 455.05 229.09 459.13 229.5 469.72 229.9 485.21 224.6 500.7 220.94 511.3 217.27 521.09 215.23 528.83 211.56 532.09 207.08 532.09 200.56 526.38 199.74 512.12 204.22 488.07 211.15 472.51 214.01 456.27 219.71 447.71 221.34"/><path class="cls-23" d="M461.57,230.31l1.22,4.89,4.08,3.67,10.19,1.23,15.49-3.67,10.19-8.16s2.86-3.66,4.49-5.7,6.52-7.75,6.52-7.75Z"/><path class="cls-13" d="M504.78,195.15l3-1.42,4.84-.72,2.3.72s.67-.92,2.3,2.14,0,3.33,0,3.33l-1.61,2.37-6,.72-2.08.71Z"/><path class="cls-13" d="M521.29,204.09c1.83-.48,5.35-1.67,5.35-1.67s3-1,4.23-.23-.28,4.51-.28,4.51-3.14,2.82-4.79,3.33a23.65,23.65,0,0,1-3.95.72S519.46,204.56,521.29,204.09Z"/><path class="cls-24" d="M454,186.49l3.26-.61h4.08l1.83,2,.82,2s.41,2-.21,2.44a32.25,32.25,0,0,1-3.87,1.43l-2.85.2h-2.86Z"/></g></g></svg>