<?xml version="1.0" encoding="utf-8"?>
<!-- Generator: Adobe Illustrator 22.1.0, SVG Export Plug-In . SVG Version: 6.00 Build 0)  -->
<svg version="1.1" id="Capa_1" xmlns="http://www.w3.org/2000/svg" xmlns:xlink="http://www.w3.org/1999/xlink" x="0px" y="0px"
	 viewBox="0 0 1366 900" style="enable-background:new 0 0 1366 900;" xml:space="preserve">
<style type="text/css">
	.st0{fill:#999999;}
	.st1{fill:#CB5C2C;}
	.st2{fill:#D69868;}
	.st3{fill:#D8AC9E;}
	.st4{fill:#966460;}
	.st5{fill:#BE8765;}
	.st6{fill:#CE7E50;}
	.st7{fill:#C87445;}
	.st8{fill:#DF7235;}
	.st9{fill:#BC754D;}
	.st10{fill:#DE7236;}
	.st11{fill:#C78259;}
	.st12{fill:#D2723E;}
	.st13{fill:#C0744B;}
	.st14{fill:#CF7340;}
	.st15{fill:#C28560;}
	.st16{fill:#B57653;}
	.st17{fill:#2D3037;}
	.st18{fill:#84EFB2;}
	.st19{fill:#FAF1D2;}
	.st20{fill:#8C554D;}
	.st21{fill:#D7A686;}
	.st22{fill:#A46E64;}
	.st23{fill:#BD8766;}
	.st24{fill:#827E7E;}
	.st25{fill:#BD8867;}
	.st26{fill:#B58769;}
	.st27{fill:#B98766;}
	.st28{fill:#E2D1B5;}
	.st29{fill:#B3876A;}
	.st30{fill:#9F8D7F;}
</style>
<g>
	<rect y="0" class="st0" width="1364.7" height="900"/>
	<path class="st1" d="M1042,650.4c17.5-41.9,35.4-83.7,52.4-125.8c15.7-38.7,41.9-71,62.4-106.8c5.5-9.7,12.7-17.6,21.4-24.7
		c23.5-19.2,46-39.5,72.8-54.2c2.6-1.4,5.6-3.1,7.1-5.5c16.1-24.9,42.6-36.9,65.7-53.1c10.4-7.4,21.5-14.2,27.4-26.5
		c-0.2-8,2.1-13,11.4-9.5c0,167.7,0,335.3,0,503c-2.4,13-0.5,26.1-1.1,39.1c0,12,0,24,0,36c0,13.6,0,27.2,0,40.8
		c-0.7,12.2,1.4,24.4-1.1,36.5c-93.3,0-186.6,0-280,0c-12.2-2.6-24.6-0.4-36.9-1.1c-12,0-23.9,0-35.9,0s-24.1,0-36.1,0
		c-7.8,0-15.6,0-23.4,0c-16.5,0-33,0-49.5,0c-12.2,0-24.4,0-36.6,0c-10.8,0-21.7,0-32.5,0c-39.1,0-78.2,0.6-117.2-0.2
		c-51.6-1.1-103.1-0.8-154.7-1c-12.2,0-14.2-1.9-17-14.9c0.3-21.9-3.7-43.6-2.8-65.6c0.4-8.6,2.9-15.4,9.6-20.7
		c16.3-12.9,32-26.6,49.3-38.1c9.1-9.3,19.6-12.1,32.9-9.9c13.4,2.2,26.5,4.4,39.4,9.4c38.9,14.9,79.4,24.8,119.1,37.1
		c8.1,2.5,14.8,0.8,21-4.5c11.4-9.9,22.6-20,34.3-29.6c28.4-23.3,60.4-41.6,90.1-63.2c9.2-3.9,16.5-11,25.1-15.9
		c24.3-10.5,49.5-18.5,73.7-29.2C1035.2,651,1038.5,650.5,1042,650.4z"/>
	<path class="st2" d="M440.7,899.9c-84.2,0-168.4,0-252.6,0c-4.7-3.6-5.1-8.8-5.3-14.1c-0.4-10.8,0.2-21.7-0.6-32.5
		c0.2-16.2,6.1-20.6,20-13.6c8.9,4.4,18.3,4.6,27.6,6c2.7,0.4,5.6,0.2,6.6-2.9c1-3-1.1-5-3.2-6.7c-6.3-5.1-14-7.5-21-11.2
		c-12.5-6.6-12.8-12-1.1-20.3c10.4-7.3,20.8-14.5,33.6-17.2c-2.2-5.5-5.1-4.6-7.5-4.1c-12.8,2.5-25.7,1.4-38.6,1.3
		c-4.6,0-9.4-0.4-11.6-5.4c-2.1-4.8,0.5-8.5,3.1-12.5c7.8-12,18.5-19.8,31.8-24.5c4.7-1.6,9.2-3.7,12.4-7.7c1.9-2.4,4-5.2,1.9-8.2
		c-2.3-3.2-5.6-1.6-8.2-0.2c-8.6,4.8-17.1,9.8-26.5,13c-2.9,1-5.7,2.2-8.7,2.7c-9.1,1.5-15.8-4.6-13-13.1
		c8.6-26.1,21.4-48.5,51.5-54.6c4.3-0.9,8-0.2,12.1,1.1c11.2,3.5,22.5,7.1,34.5,3.8c23.7,4.5,47,10.2,70.5,15.6
		c26,5.9,52.1,11.5,78.1,17.4c5.9,6.2,7,13.7,5.7,21.9c-6.2,10.2-17.4,9.4-26.9,11.8c-6.5,1.6-13.3,2.6-20.1,3
		c-7.8,0.5-11.7,4.8-11.6,12.5c0.2,13-0.2,25.5-9.5,36.2c-3.9,4.5-1.2,9.4,2.7,13.1c6.9,6.5,11.3,14,11.6,23.7
		c0.1,4.2,2.4,7.9,5,11.2c4.4,5.8,7.3,12,8.9,19.3c2.1,9.9,8.8,16.5,19.1,18.7c6.7,1.4,13.4,2.4,20.2,2.6c4.5,0.1,9.2,0.4,11.7,5.4
		C444.3,894.5,443.2,897.4,440.7,899.9z"/>
	<path class="st3" d="M1366.1,169.4c0,35.5,0,71,0,106.5c-8.5,0.6-9.8,7.3-16.4,9.5c-44.6,10.5-88.7,7.1-132.6-2.2
		c-13.4-2.8-19.4-9.1-18.7-19.8c0.8-11.6,2.1-22.8,7.3-33.9c3.6-7.6,7.4-15.4,8.7-23.3c2.9-17.3,1.7-33.8-15.6-48.7
		c-14.4-12.4-24.7-27.1-38.3-39.9c-18.5-17.5-17-35.3-4.9-53.9c3.4-5.2,6.3-10.6,10.2-15.7c9-11.7,9.2-23.3,1.2-35.3
		c-2.7-4.1-4.5-8.6-6.7-12.9c67.5,0,134.9,0,202.4,0c3.6,15.1,0.7,30.3,1.6,45.5c0,10.7,0,21.3,0,32c1,11-2.1,22,1.6,32.9
		C1366.1,130,1366.1,149.7,1366.1,169.4"/>
	<path class="st4" d="M276.9,684.6c-11.6,1.7-22.3-2.8-33.3-5c-12.8-2.5-38.1,8.3-44,19.7c-4.5,8.7-9,17.5-13.2,26.4
		c-1.6,3.3-4.4,7.2-0.9,10.4c3.4,3.1,7.2,0,10.6-1.1c11.6-3.8,22.2-9.7,32.4-16.2c5-3.1,9.4-4.7,13.9,0.9c4,4.9,3.7,8.7-0.1,14
		c-5,6.9-11.2,11.3-19,13.6c-13.5,4-22.7,13.1-30.6,24c-4.4,6.1-2,8.1,4.4,7.9c14.7-0.4,29.6,1.8,44-3c6.2-2.1,10.2-0.6,12,6.1
		c1.7,6.5-0.3,10.1-7.2,11c-15.9,2-26.8,13-40.5,21.4c10.4,7.3,22.1,9.8,31.6,16.6c5.9,4.2,9.9,8.9,7.3,16
		c-2.7,7.4-9.6,4.9-14.7,4.1c-10.7-1.8-22-1.2-31.6-7.9c-8-5.6-10.5-1.6-10.2,6.5c-1.1,0.4-2.4,0.4-3.3-0.2
		c-11.9-9.1-12-9.1-14.9,6.2c-1.8,9.3-3.2,18.6-4,28.1c-0.8,8.4-3.8,15.5-13.9,15.9c-19.7,0-39.5,0-59.2,0
		c-6.6-7.1-17.5-9.2-22-18.8c-10.6-23-17-45.5,2.1-67.8c5.5-6.5,8.7-14.9,13-22.4c3.5-9,9.2-16.3,16.2-22.9
		c14.6-13.7,17.7-32.9,23.7-50.7c6.5-19.2,10.5-39.2,22.9-56.3c6.6-9.1,13.9-13.2,24.6-12c8.3,0.9,16.5,2.2,24.7,3.5
		c3.4,0.5,6.8-1,10.2,0.2c6.6,5.3,13.2,6.1,20.7,1.3c4.1-2.6,9.1-3.2,14.2-3.3c16.4-0.2,17.2,0.2,15.9,16.9
		c-0.5,6.3,3.5,6.6,7.4,7.9C271.1,676.9,277.2,677.1,276.9,684.6z"/>
	<path class="st5" d="M440.7,899.9c0-2.9,0.1-5.9,0.1-8.8c12.1-6.6,25.2-3.9,37.6-2.5c17,2,34.1,0,51,2.4c4.5,0.6,8.1-1.6,10.3-5.6
		c1.4-2.7,2.6-5.5,6.1-6.3c4.5,16.2,4.5,16.1,22.6,16.3c87.2,0.8,174.4,1.7,261.5,2.5c1.6,0.6,1.6,1.3,0,2
		C700.2,899.9,570.5,899.9,440.7,899.9z"/>
	<path class="st6" d="M898.2,897.8c16.8,0,33.5,0.1,50.3,0.1c1.6,0.8,1.5,1.4-0.1,2c-16.7,0-33.4,0-50.1,0
		C896.6,899.2,896.6,898.5,898.2,897.8z"/>
	<path class="st7" d="M1360.4,863.5c0-13.7,0-27.3,0-41c0.7-1.6,1.4-1.6,2.2,0c0,13.7,0,27.3,0,41
		C1361.8,865,1361.1,865,1360.4,863.5z"/>
	<path class="st8" d="M1360.3,786.1c1-12.9-2.4-26,2.2-38.7c0,12.9,0,25.8,0,38.7C1361.8,787.6,1361.1,787.6,1360.3,786.1z"/>
	<path class="st9" d="M1360.4,863.5c0.7,0,1.4-0.1,2.2-0.1c0,11,0,22-0.1,33c0,1.4,1.4,4.2-2.2,3.4
		C1360.3,887.7,1360.3,875.6,1360.4,863.5z"/>
	<path class="st10" d="M1043.8,897.6c12.1,1,24.6-2.5,36.5,2.2c-12.1,0-24.3,0-36.4,0C1042.3,899.2,1042.3,898.4,1043.8,897.6z"/>
	<path class="st11" d="M898.2,897.8c0,0.7,0,1.4,0.1,2.1c-12.1,0-24.3,0-36.4,0c-1.6-0.6-1.6-1.3,0-2
		C873.9,897.8,886,897.8,898.2,897.8z"/>
	<path class="st12" d="M1360.3,786.1c0.7,0,1.5,0,2.2,0c0,12.1,0,24.3,0,36.4c-0.7,0-1.4,0-2.2,0
		C1360.3,810.4,1360.3,798.2,1360.3,786.1z"/>
	<path class="st13" d="M971,897.8c12.1,0,24.3,0,36.4-0.1c1.6,0.7,1.6,1.4,0.1,2.1c-12.1,0-24.3,0-36.4,0
		C969.5,899.2,969.4,898.5,971,897.8z"/>
	<path class="st14" d="M1007.5,899.9c0-0.7,0-1.4-0.1-2.1c12.1,0,24.3-0.1,36.4-0.1c0,0.7,0,1.5,0.1,2.2
		C1031.7,899.9,1019.6,899.9,1007.5,899.9z"/>
	<path class="st15" d="M861.7,897.8c0,0.7,0,1.3,0,2c-10.6,0-21.2,0-31.9,0c0-0.7,0-1.3,0-2C840.5,897.9,851.1,897.9,861.7,897.8z"
		/>
	<path class="st16" d="M971,897.8c0,0.7,0,1.4,0.1,2.1c-7.6,0-15.2,0-22.8,0c0-0.7,0.1-1.3,0.1-2C955.9,897.8,963.5,897.8,971,897.8
		z"/>
	<path class="st17" d="M318.3,381.8c-1.8,0.3-3.8,0.1-5.4,0.8c-27.8,13.9-57.9,9.3-87.3,9.8c-2.1,0-4.7-0.1-6.3-1.2
		c-22.1-15.7-46.5-29-60-53.5c-5.2-9.4-2.6-20.2-0.8-30.3c1.9-10.5,4.4-20.9,7.1-31.2c1.8-6.6,1-12.1-4.9-16.1
		c-17.3-11.8-22.5-28-21.2-47.9c0.7-10.4,1.3-20.4,5.9-29.9c7-14.3,11.3-29.2,10.4-45.3c-0.3-4.7,0.5-9.3,3.4-13.2
		c12.4-16.9,17.4-36.5,22.9-56.1c7.6-26.8,10.6-29.3,38.4-25.9c22.2,2.7,42.3,0,59.2-15.3C300.3,8,324.2,3.2,352,3.6
		c29.2,0.4,56.4,6.4,83.8,14.5c4.9,1.4,10.1,3.5,14.9,3.1c37.4-3.2,67.3,13.7,96,33.4c15.8,10.8,31.3,22.2,45.5,35.1
		c9.2,8.4,10.1,17.3,7.5,27.9c-2.7,11-9.1,20.2-15.6,29.2c-9.2,12.8-7.1,27.1-6.8,41.2c0.1,4.7,4.7,7.1,8.2,9.5
		c6.5,4.5,9.1,10.1,9.1,18.1c0,31.6,0.5,63.3,6.6,94.5c1.7,8.7,1.6,16.5-10.8,17.3c-4.4,0.3-6.6,3.8-8.6,7.5
		c-3.7,7-8,13.6-11.3,20.7c-5.2,11.1-11.3,18-25.6,12.7c-7.3-2.7-24.9,10.2-27,17.8c-3.8,14-6.4,15.3-20.2,9.8
		c-4-1.6-7.8-3.9-11.7-5.9c-13.2-6.8-15.6-6.3-24.5,5.2c-1.7,2.2-3.6,4.3-5.4,6.4c-5.1-2.9-4.4-9.7-10.1-11.3
		c-3.2-4.1-0.6-7.6,1.7-10.6c6.1-7.8,9.6-16.7,12.4-25.9c10.3-34,16.5-68.5,10.3-103.9c-2.7-15.4-9.7-29.7-16.6-43.8
		c-1.6-3.3-4.8-5.2-8.6-6.1c-16.4-4-32.9-4.9-49.9-3.9c-19.7,1.2-38.4,4.7-56,13c-17.1,8-31.7,18.7-38.8,37
		c-2.2,5.8-3.6,11.4-3.7,17.6c-0.4,19.9-0.6,39.8,2.6,59.5c2.6,16.2,9.9,31,19.1,44.9c2.3,3.5,6.4,6.1,5.3,11.1
		C322.9,381.3,321.2,382.6,318.3,381.8z"/>
	<path class="st18" d="M206.2,656.6c-2.5,0.8-5,2.5-7.2-0.6c-4.4-3.3-7.2-7.6-8-13.2c-1.8-12.1-7-22.1-17.6-29
		c-18.7-12.3-29.7-31.2-40.8-49.6c-8.9-14.8-22.4-24.4-35.1-35c-3.4-2.8-8.1-1.9-11.5-4.5c-6.8,0.4-4.8-4.6-4.3-7.9
		c4.1-27,8.7-54.5,20.6-78.9c7.9-16.4,20-31.9,39.8-38.2c38.4-12.2,77.8-9.9,117.1-8.5c11.3,0.4,22.7,1.1,34,0.9
		c4.7,0.2,5.6,3.6,5.3,7.1c-4.2,39.5,13.6,71,36.3,100.7c8.3,10.8,16.3,21.9,24.1,33c8.1,11.5,18.5,20.1,31.1,25.7
		c17.8,8,35.2,17.4,55.7,17.5c11.8,0.1,22.3-3.7,32.8-7.9c6.1-2.4,9.1-7.8,11.1-13.6c11.5-33.1,25.5-65.7,23.3-102
		c-0.1-1.9,0.8-3.7,1-5.6c-1.2-3.1-2.4-6.2-4.1-10.4c8.8-0.3,15.3,3.9,22.2,6.3c18.6,6.4,36.9,14,55.8,19.3
		c16.6,4.7,28.3,14.3,35.6,29c14.2,28.7,30.3,56.9,33.6,89.7c-0.7,4.2-3.4,6.8-7.6,6.9c-12.3,0.2-24.1,2.9-35.4,7.5
		c-56.9-5-110.8,13-165.8,22.1c-60.1,10-119.6,23.5-179.9,32.1C247.8,652.4,227.3,658.2,206.2,656.6z"/>
	<path class="st19" d="M206.2,656.6c48.8-9.1,97.5-18.4,146.3-27.4c71.9-13.3,143.9-26.2,215.8-39.8c15.3-2.9,30.2,2.3,45.3,0.7
		c11.1-1.6,22.3-0.5,33.4-2c3.9-0.5,7.6,0.5,9.2,4.9c24.4,2.1,48.8,4.3,73.3,6.2c15.4,1.2,30.9,2,46.3,3
		c41.5,3.2,82.9,8.1,124.7,7.8c3,0,6-0.1,9,0.9c2.3,1.5,4.9,2.6,5.3,5.8c-1.4,4.2-5.6,5.6-8.3,8.4c-42.9,10.5-86.7,16.4-130,25.1
		c-55.2,11.1-110.7,21-165.9,31.9c-5.2,1-10.3,2.3-15.4,3.9c-12.6-0.8-24.7,1.2-36,7c-5.9,1.5-12,0.8-17.9,1.4
		c-7.1,2-14.2,2.1-21.2,0c-23.7-7.1-48.3-6.6-72.6-9c-2.7-0.3-5.3,0-7.7,1.2c-3.4,1.7-7.2,3.7-6.5,8.2c0.7,4.4,5.1,3.4,8.3,4.1
		c6,1.2,14.5-2.2,16.1,8c-3.1,7.9-11.4,6.6-17.2,9.6c-4.2,1.1-8.4,1.3-12.5-0.8c-1.1-0.5-2.1-1.1-3.1-1.8c-4.7,2.7-9.3,1.5-14.2,0.3
		c-42.6-9.9-85.3-19.6-128-29.3c-1.8-0.4-3.8-0.2-5.6-0.2c-9.9-5-21.3-4.9-32.4-9.3c4.4-4.5,10.1-7.1,10.9-14.3
		c0.6-5.4-0.6-6.8-5.4-7c-7.7-0.4-15.1,0.2-21.9,4.1C220.4,662.6,213.1,663.4,206.2,656.6z"/>
	<path class="st4" d="M322.8,374c-22.7-23.7-31.4-52.7-31.8-84.7c-0.2-15.1-0.6-30.3-0.3-45.4c0.2-12.2,5.3-23.7,13.1-31.9
		c21.7-23,48.7-36.3,80.8-38.5c22.3-1.5,44.5-3.3,66.6,2.6c6.8,1.8,10.8,4.6,13.9,11.2c13,27.5,20.9,56.3,18.5,86.6
		c-3.1,39.2-7,78.6-33.1,111.1c-0.9,0.9-1.9,1.8-2.8,2.7c-7.3,34.1-35,43.9-62.9,41.4c-4.3-0.4-8-1.8-11.5-4.3
		c-16.5-12-32.4-24.7-46.1-39.9C324.1,381.9,321.7,378.7,322.8,374z"/>
	<path class="st20" d="M322.8,374c15.1,13.8,29.3,28.4,45.7,40.9c18.7,14.2,49.6,11.6,64.2-7.1c5.1-6.5,10-13.3,14.9-20
		c-0.2,11.4,3,22.3,4.7,33.4c0.6,3.6,2.6,6,5.6,8c17,11.3,35.3,18.2,56,17.7c7.1,13.3,5,27.5,2,40.8c-5.7,25.5-12.9,50.8-23.7,74.7
		c-6.9,15.3-23.3,17.8-36.6,18.2c-41.8,1.2-78.1-13-103.4-48c-18.4-25.3-39.3-48.8-51.4-78.7c-7.4-18.1-9.2-35.6-7.3-54.2
		c0.3-2.6,1.7-5.2-0.4-7.6c8.9-4.3,17.4-9.2,24.9-15.7C319.6,375.5,321.2,374.8,322.8,374z"/>
	<path class="st20" d="M85.9,524.7c4.6-5.8,8-5.7,14.6-0.9c22.3,16.1,37.8,37.5,51.6,60.6c5.1,8.5,11.6,16.1,20.1,21.2
		c19.1,11.6,25,29.9,26.9,50.4c-7.5,0.4-15,0.4-22.5-1.3c-9.9-2.3-17.2,0.1-23.9,9.7c-11.6,16.7-16.5,35.6-21.4,54.4
		c-7.6,29.1-20.7,54.1-45.6,71.9C85.7,702.1,85.8,613.4,85.9,524.7z"/>
	<path class="st21" d="M909.4,615c-44.9-0.6-90,2-133.5-12.7c7.9,0.4,14.6-1.8,20.4-7.6c6.6-6.6,15-10.2,24.4-10.6
		c15.7-0.8,30.5-5.3,45.1-10.5c5.8-2,11.6-3.6,13.8-10.4c1.5-4.7,5.5-4.4,9.4-4c14.7,1.5,29.3,2.8,44,4.4
		c33.4,3.7,57.2,24.1,78.7,47.3c11.3,12.1,20.3,26.3,30.3,39.6c-6.4,9.7-17.5,11.1-27,15c-18.1,7.5-36.6,13.8-55,20.6
		c-13.7-0.8-18.6-5.4-21.3-18.3c-2-9.5-3.5-19.4-9.5-27.6c-2.1-5.9-3.4-12.2-8.7-16.4c-1.2-1.6-2.2-3.3-3.2-5
		C915.8,614.9,913.4,613.3,909.4,615z"/>
	<path class="st22" d="M656.3,593.1c-14.3,0.1-28.5-0.6-42.6-2.9c13.9-5.5,29.1-4.9,43.2-9.2C662,585.2,668.1,589.6,656.3,593.1z"/>
	<path class="st23" d="M925.3,617.9c3,6.1,6,12.2,9,18.2c0.2,15.5,5,30.4,6.3,45.8c0.6,7.1,0.6,13.5-3.4,19.5
		c-8.7,6-17.2,12.4-26.1,18.1c-36.8,23.3-71.5,49.5-103.4,79.2c-4.4,4.1-8.7,5.1-14.3,3.4c-45.5-13.9-91.9-25-136.2-43.1
		c-13.2-5.4-27.5-4.6-41.3-6.4c-6.3-0.8-10.4,5.6-15.6,8.5c-10.2-3.5-14.3-13.2-19.6-20.9c-9.3-13.5-19.5-25.6-33.8-34
		c-3.2-1.9-6.1-4.5-8-7.8c-1.6-2.8-2.4-5.9,2.3-6.7c5.5-1.2,11.1-1.9,16.2-4.6c12.3-0.4,24.1-3.1,35.8-6.5
		c52.6-10.3,105.1-20.7,157.7-31c34.5-6.7,68.9-13.4,103.4-20c16.9-3.2,33.9-6.3,50.8-9.5C912,620.5,918.6,618.5,925.3,617.9z"/>
	<path class="st21" d="M540.6,692.7c1.8,5,6.3,7.4,10.4,9.6c22.1,12.3,33.1,34.4,47.5,53.5c1.1,1.4,1.2,3.5,1.8,5.3
		C584.1,774,568,787,551.6,799.7c-5.9,4.5-8.7,9.7-8.3,17.3c1.1,20.7,1.7,41.4,2.5,62.1c-0.1,3.4-0.3,6.8-0.3,10.1
		c0,5.6-2.6,8.7-8.2,8.2c-32.1-3.1-64.5-1.9-96.5-6.3c-9.8-0.7-19.6-0.1-29.4-2.1c-13.2-2.7-23-11.7-25.2-25.3
		c-0.7-4.3-1.9-8.2-4.6-11.4c-5.7-6.9-9.5-14.1-9.8-23.5c-0.2-8.7-7.6-13.7-13.5-18.8c-5-4.2-6.9-8.4-1.8-13.1
		c11.3-10.4,12.5-23.6,11.3-37.5c-1-11,4-16.1,14.9-16.5c16-0.6,31.4-4.7,46.6-9.2c1.8-3.3,3.4-6.7,7.6-7.6
		c10.7-2.5,16-10.3,19.6-19.9c-7.6-3.7-15.6-1.3-23.4-1.9c-4.8-0.4-9.6-1.6-11.4-6c-1.7-4.2,3.4-6.1,5.5-9
		c6.5-9.1,15.1-9.5,25.8-9.2c29.6,0.8,58.1,8.4,87.4,10.6C542.4,691.1,542.4,691.9,540.6,692.7z"/>
	<path class="st24" d="M937.2,701.4c-1.5-18.1-3-36.2-4.4-54.3c-0.3-3.8-0.8-7.6,1.5-11c1.6,5.8,3.8,11.4,4.8,17.3
		c2.4,13.9,7.9,25.5,20.9,32.5C952.4,691.1,944.8,696.3,937.2,701.4z"/>
	<path class="st25" d="M456.6,706c3,10.6-0.3,18.3-10.2,22.2c-5.5,2.2-11.3,3.6-17,5.3c-1.5-6.6-3-13.2-4.6-19.8
		c0.6-0.5,1.3-0.7,2.1-0.7c3.6-2.6,8.4,0.7,11.9-2.3C444.7,709.2,450.6,707.6,456.6,706z"/>
	<path class="st26" d="M593.2,680.5c-11.1,6.9-23.7,7.4-36.2,7.6l-0.1-0.4C568.8,684.1,580.9,682.1,593.2,680.5z"/>
	<path class="st27" d="M925.3,617.9c-6.5,2.6-13,6.2-20.2,2.1c3-0.8,6.1-1.5,9.1-2.3c1.4-1.5,2.9-1.5,4.5-0.3
		C920.9,617.6,923.1,617.7,925.3,617.9z"/>
	<path class="st28" d="M918.7,617.4c-1.5,0.1-3,0.2-4.5,0.3c-1.6-0.9-3.2-1.8-4.8-2.8c3.2-0.6,6.3-1.4,9.5-1.8
		c1.2-0.2,3.4-0.5,3.1,1.6C921.8,615.8,919.8,616.5,918.7,617.4z"/>
	<path class="st29" d="M556.9,687.6l0.1,0.4c-5,3.2-10.6,4.1-16.4,4.6c0-0.7,0-1.5-0.1-2.2C546,689.5,551.4,688.6,556.9,687.6z"/>
	<path class="st30" d="M438.8,710.8c-3.6,2.8-7.7,2.6-11.9,2.3C430.5,710.6,434.6,710.7,438.8,710.8z"/>
</g>
</svg>
