<svg xmlns="http://www.w3.org/2000/svg" xmlns:xlink="http://www.w3.org/1999/xlink" viewBox="0 0 822.93 537.6"><defs><style>.cls-1{fill:#353535;}.cls-2{fill:#474241;}.cls-3{fill:#a8a2a4;}.cls-4{fill:#b7afb4;}.cls-5{fill:#f2eff1;}.cls-6{fill:#5c5261;}.cls-7{fill:#d5ced5;}.cls-8{fill:#ea712e;}.cls-9{fill:#a49ba7;}.cls-10{fill:#adada8;}.cls-11{fill:#e0e1e1;}.cls-12{fill:#886a5d;}.cls-13{fill:#6c4f42;}.cls-14{fill:#edeef0;stroke-width:1.04px;}.cls-14,.cls-15{stroke:#a7a09f;stroke-miterlimit:10;}.cls-15{stroke-width:1.02px;fill:url(#Degradado_sin_nombre_40);}.cls-16{fill:#998f83;}</style><linearGradient id="Degradado_sin_nombre_40" x1="908.02" y1="221.07" x2="997.57" y2="221.07" gradientTransform="matrix(-1, 0, 0, 1, 1650.8, 0)" gradientUnits="userSpaceOnUse"><stop offset="0" stop-color="#fff"/><stop offset="0.14" stop-color="#fbfbfb"/><stop offset="0.27" stop-color="#f0f0f0"/><stop offset="0.39" stop-color="#dedede"/><stop offset="0.51" stop-color="#c3c3c3"/><stop offset="0.63" stop-color="#a2a2a2"/><stop offset="0.74" stop-color="#787878"/><stop offset="0.86" stop-color="#474747"/><stop offset="0.97" stop-color="#101010"/><stop offset="1"/></linearGradient></defs><title>imagen_2</title><g id="Capa_2" data-name="Capa 2"><g id="Capa_1-2" data-name="Capa 1"><polyline class="cls-1" points="822.93 537.6 0.82 537.6 0.82 0 281 0 822.93 0 822.93 537.6"/><polygon class="cls-2" points="0 308.98 822.11 88.1 822.11 536.93 0 536.93 0 308.98"/><polyline class="cls-3" points="386.05 325.39 353.95 337.27 350.46 342.85 350.46 352.98 495.59 524.02 511.63 531.4 764.9 406.4 770.04 386.85 770.04 375.67 606.52 246.48 575.13 256.96 581.41 263.24 393.72 334.47 386.05 325.39"/><polygon class="cls-4" points="439.55 471.69 394.55 526.51 381.29 526.51 233.38 440.97 229.89 431.89 231.63 425.95 280.13 382.66 289.89 380.56 296.17 382.66 437.81 458.42 439.55 465.41 439.55 471.69"/><polyline class="cls-5" points="388.44 319.11 356.35 330.98 352.86 336.57 352.86 346.69 497.98 517.74 514.03 525.11 767.3 400.11 772.44 380.56 772.44 369.39 608.92 240.2 577.52 250.67 583.8 256.96 396.12 328.19 388.44 319.11"/><polygon class="cls-6" points="467.29 377.07 434.49 391.04 442.87 400.81 478.8 388.94 467.29 377.07"/><polygon class="cls-6" points="428.91 388.94 420.54 377.07 447.75 367.29 456.64 377.07 428.91 388.94"/><path class="cls-6" d="M408.68,363.1l20.23,4.19Z"/><polygon class="cls-6" points="416.7 373.23 408.68 365.2 420.54 358.91 428.91 367.29 416.7 373.23"/><polyline class="cls-6" points="426.82 352.28 415.65 342.15 396.12 350.53 403.79 361.01 426.82 354.02"/><polygon class="cls-6" points="446.35 363.1 437.28 351.58 426.82 357.34 434.49 366.07 446.35 363.1"/><polygon class="cls-6" points="453.33 345.3 442.17 350.19 450.54 361.01 453.33 345.3"/><polygon class="cls-6" points="463.45 355.07 453.33 345.3 442.17 350.19 450.54 361.01 463.45 355.07"/><polygon class="cls-6" points="442.17 345.3 434.49 336.57 420.54 340.93 431.35 351.58 442.17 345.3"/><polygon class="cls-6" points="459.96 337.96 450.89 328.89 438.59 333.43 447.75 345.3 459.96 337.96"/><polygon class="cls-6" points="474.61 331.68 465.89 323.3 455.42 327.49 463.45 337.96 474.61 331.68"/><polygon class="cls-6" points="491.36 324.7 482.98 317.01 470.77 320.86 478.8 330.63 491.36 324.7"/><polygon class="cls-6" points="508.45 319.11 500.82 310.31 488.22 315.27 495.89 324.7 508.45 319.11"/><polygon class="cls-6" points="521.71 311.43 513.68 305.49 502.87 308.46 512.29 318.06 521.71 311.43"/><polygon class="cls-6" points="537.05 307.94 529.03 300.25 518.22 304.1 526.24 311.78 537.05 307.94"/><polygon class="cls-6" points="552.06 302.35 544.03 293.27 532.52 297.81 542.29 307.24 552.06 302.35"/><polygon class="cls-6" points="566.36 296.41 558.68 288.03 548.92 292.22 557.64 300.25 566.36 296.41"/><polyline class="cls-6" points="581.36 290.48 572.29 281.75 562.17 286.11 571.77 294.14"/><polyline class="cls-6" points="586.77 288.03 578.57 280 587.99 276.51 594.97 285.24"/><polygon class="cls-6" points="608.92 277.91 601.94 271.62 592.17 274.77 600.55 282.27 608.92 277.91"/><polygon class="cls-6" points="620.08 271.62 612.76 266.39 604.73 271.62 612.41 276.95 620.08 271.62"/><polygon class="cls-6" points="470.77 411.64 465.02 406.4 452.81 413.03 458.21 417.57 470.77 411.64"/><polygon class="cls-6" points="488.22 403.95 482.98 398.72 470.77 403.95 476.01 409.19 488.22 403.95"/><polygon class="cls-6" points="481.06 396.97 476.36 392.08 465.02 398.72 470.77 402.21 481.06 396.97"/><polygon class="cls-6" points="467.98 353.15 459.96 344.07 470.77 337.96 479.5 346.69 467.98 353.15"/><polyline class="cls-6" points="482.98 345.3 476.36 337.09 489.61 332.03 496.05 339.64 482.98 345.3"/><polygon class="cls-6" points="393.33 349.14 388.1 342.15 401 337.96 406.24 344.07 393.33 349.14"/><polygon class="cls-6" points="411.47 342.15 406.24 337.09 418.79 330.63 425.42 336.39 411.47 342.15"/><polygon class="cls-6" points="426.82 334.47 422.28 328.89 436.59 324.7 442.17 328.89 426.82 334.47"/><polygon class="cls-6" points="446.35 327.14 442.17 323.3 452.81 318.06 458.56 322.6 446.35 327.14"/><polygon class="cls-6" points="461.79 321.2 458.56 317.01 469.38 311.43 473.04 316.32 461.79 321.2"/><polygon class="cls-6" points="478.8 316.32 473.04 310.03 484.9 306.02 491.36 310.03 478.8 316.32"/><polygon class="cls-6" points="494.84 309.33 491.36 303.75 502.87 300.25 506.7 304.79 494.84 309.33"/><polygon class="cls-6" points="512.29 303.05 506.7 298.16 518.22 294.14 521.71 298.6 512.29 303.05"/><polygon class="cls-6" points="527.64 296.41 521.71 291.18 532.52 287.95 537.05 292.18 527.64 296.41"/><polygon class="cls-6" points="542.29 290.83 537.05 285.94 547.17 281.75 552.06 286.29 542.29 290.83"/><polygon class="cls-6" points="557.64 284.19 552.06 279.65 563.92 276.51 568.45 281.75 557.64 284.19"/><polygon class="cls-6" points="570.4 280.08 566.36 276.51 576.83 271.67 581.36 274.77 570.4 280.08"/><polygon class="cls-6" points="586.77 273.37 581.36 268.8 592.17 266.39 594.97 269.88 586.77 273.37"/><polygon class="cls-6" points="594.97 263.24 604.73 260.45 610.66 263.24 600.55 268.8 594.97 263.24"/><polygon class="cls-6" points="527.64 327.14 518.22 318.06 508.97 322.6 518.22 333.14 527.64 327.14"/><polygon class="cls-6" points="544.56 323.3 534.79 312.51 521.71 317.01 532.52 327.14 544.56 323.3"/><polygon class="cls-6" points="557.64 317.01 548.92 307.24 537.05 312.13 547.35 322.6 557.64 317.01"/><polygon class="cls-6" points="573.86 311.43 564.53 302.05 555.2 306.02 562.17 314.92 573.86 311.43"/><polygon class="cls-6" points="584.5 303.05 578.57 296.41 568.45 300.25 576.48 308.98 584.5 303.05"/><polygon class="cls-6" points="638.4 342.15 623.57 328.89 508.45 378.12 519.96 392.08 638.4 342.15"/><polygon class="cls-6" points="629.5 327.14 642.06 337.96 653.05 332.03 643.63 321.2 629.5 327.14"/><polygon class="cls-6" points="625.84 323.82 615.37 314.92 620.61 309.33 636.3 318.06 625.84 323.82"/><polygon class="cls-6" points="608.92 332.03 597.58 321.73 612.41 317.01 620.08 324.7 608.92 332.03"/><polygon class="cls-6" points="592.17 337.96 581.36 328.89 594.97 323.3 604.73 334.47 592.17 337.96"/><polygon class="cls-6" points="578.57 330.63 568.45 336.39 578.57 345.3 588.16 342.15 578.57 330.63"/><polygon class="cls-6" points="552.06 339.88 562.17 353.15 571.77 346.52 562.17 336.39 552.06 339.88"/><polygon class="cls-6" points="463.45 360.49 450.37 367.29 450.37 363.89 459.96 373.23 470.77 370.26 463.45 360.49"/><polygon class="cls-6" points="566.36 329.58 557.64 321.73 547.35 327.14 555.2 336.39 566.36 329.58"/><polygon class="cls-6" points="571.77 327.14 564.53 321.2 573.42 314.92 581.36 325.05 571.77 327.14"/><polygon class="cls-7" points="436.41 467.5 436.41 461.57 432.92 456.33 297.92 385.8 293.73 384.4 288.15 382.66 283.61 384.4 235.12 428.75 235.12 433.28 380.6 517.43 386.87 517.43 394.2 517.43 436.41 467.5"/><polygon class="cls-8" points="421.76 454.93 300.36 391.38 249.77 438.17 373.97 510.1 421.76 454.93"/><polygon class="cls-9" points="271.71 405.92 263.99 413.25 262.42 413.25 262.42 412.07 270.01 405 271.71 405 271.71 405.92"/><polygon class="cls-3" points="622.87 40.48 615.2 32.8 345.88 97.04 338.91 104.03 334.72 113.11 341 330.28 345.19 337.96 351.46 337.96 357.05 332.38 608.92 240.2 622.87 40.48"/><polygon class="cls-1" points="577.52 250.67 597.76 242.99 604.03 239.5 623.57 44.67 620.08 36.99 613.8 36.99 354.95 101.23 346.58 104.73 342.39 108.92 342.39 115.2 346.58 329.58 347.28 336.57 352.86 336.57 356.35 330.98 388.44 319.11 396.12 328.19 583.8 256.96 577.52 250.67"/><polygon class="cls-10" points="822.93 365.2 802.18 361.71 807.07 374.98 808.46 388.24 808.46 407.1 806.37 421.76 788.93 412.68 788.93 426.65 792.42 432.24 822.93 415.48 822.93 365.2"/><polygon class="cls-11" points="650.08 537.6 636.13 506.96 625.66 497.88 606.83 497.88 591.48 497.88 562.87 510.45 549.61 517.74 549.61 537.6 650.08 537.6"/><polygon class="cls-11" points="822.93 415.48 792.42 432.24 769.39 448.3 761.02 455.98 747.07 471.34 736.6 497.88 721.95 537.6 822.93 537.6 822.93 415.48"/><polygon class="cls-6" points="481.24 368.08 473.21 359 484.03 352.89 492.75 361.62 481.24 368.08"/><polygon class="cls-8" points="608.92 56.54 357.05 117.99 360.54 311.43 594.97 229.03 608.92 56.54"/><polygon class="cls-6" points="497.46 359.18 489.44 350.1 500.25 343.99 508.97 352.72 497.46 359.18"/><polygon class="cls-6" points="533.04 343.99 525.02 334.91 535.83 328.8 544.56 337.53 533.04 343.99"/><polygon class="cls-6" points="494.3 380.82 486.28 371.75 497.1 365.63 505.82 374.36 494.3 380.82"/><polygon class="cls-12" points="630.55 497.88 620.08 459.47 615.9 446.9 615.9 415.48 608.22 393.83 599.85 385.45 588.69 373.58 577.52 361.71 574.03 354.72 563.57 346.69 541.94 324.7 535.66 324.7 529.38 330.28 529.38 335.17 543.34 351.23 536.36 350.53 513.33 324.7 507.05 324.7 502.17 324.7 497.29 328.19 497.29 333.08 516.12 354.72 521.71 361.71 519.61 366.6 493.8 338.66 481.94 339.36 478.45 346.69 507.75 379.86 507.05 386.15 478.45 356.82 470.77 358.91 470.77 367.99 488.91 387.55 498.68 400.11 508.45 421.76 526.59 446.2 546.82 467.15 560.08 492.99 562.87 510.45 591.48 497.88 630.55 497.88"/><polygon class="cls-6" points="597.67 318.67 586.33 308.37 601.16 303.66 608.83 311.34 597.67 318.67"/><polyline class="cls-6" points="597.58 299.03 589.38 291 598.8 287.51 605.78 296.24"/><polyline class="cls-13" points="805.93 415.48 808.46 388.24 802.18 361.71 783.35 361.71 772.44 352.63 754.04 352.63 707.99 322.6 683.57 298.86 646.6 271.62 633.34 275.81 624.27 271.62 599.85 285.59 592.17 289.78 588.69 296.76 588.69 301.65 575.43 312.82 568.45 319.81 574.73 323.3 584.5 320.51 594.97 312.13 607.52 307.94 624.27 315.62 637.52 320.51 650.08 330.98 655.67 343.55 653.57 351.93 642.41 351.93 624.97 343.55 608.92 336.57 590.08 337.27 584.5 343.55 588.69 349.83 604.73 358.21 620.08 366.6 643.11 375.67 650.08 383.36 673.81 388.94 704.5 391.04 731.72 396.97 781.25 409.19 806.37 421.76 805.93 415.48 805.93 415.48"/><ellipse class="cls-14" cx="734.41" cy="168.89" rx="24" ry="45.35" transform="translate(353.41 819.06) rotate(-72.58)"/><ellipse class="cls-1" cx="731.13" cy="179.35" rx="24" ry="45.35" transform="translate(341.14 823.26) rotate(-72.58)"/><polygon class="cls-15" points="767.13 198.47 728.4 264.63 718.46 268.8 704.85 268.8 688.46 264.63 679.21 257.13 674.5 250.85 674.5 242.99 688.46 173.34 699.1 183.99 709.56 190.09 723.17 195.86 748.81 198.47 767.13 198.47"/><path class="cls-16" d="M768.61,202.64l10.65-14.21-10.65,14.21s-8,.2-15.47,1.24-21.29-1.81-29.29-4.07S699.35,187,699.35,187l-10.84-11.53s-3-7.94-3-13,3-6.23,3-6.23l6-7.94a51.63,51.63,0,0,1,0,9.64c-.5,5.28,1,8.13,2.25,11s11.07,12.2,11.07,12.2l17.58,7.37,14.92,3.41h19.18l10.56-3.1,9.15-13.35V187"/></g></g></svg>