<?xml version="1.0" encoding="utf-8"?>
<!-- Generator: Adobe Illustrator 22.1.0, SVG Export Plug-In . SVG Version: 6.00 Build 0)  -->
<svg version="1.1" id="Capa_1" xmlns="http://www.w3.org/2000/svg" xmlns:xlink="http://www.w3.org/1999/xlink" x="0px" y="0px"
	 viewBox="0 0 1366 900" style="enable-background:new 0 0 1366 900;" xml:space="preserve">
<style type="text/css">
	.st0{clip-path:url(#SVGID_2_);}
	.st1{fill:#999999;}
	.st2{fill:#CB5C2C;}
	.st3{fill:#D69868;}
	.st4{fill:#D8AC9E;}
	.st5{fill:#966460;}
	.st6{fill:#BE8765;}
	.st7{fill:#CE7E50;}
	.st8{fill:#C87445;}
	.st9{fill:#DF7235;}
	.st10{fill:#BC754D;}
	.st11{fill:#DE7236;}
	.st12{fill:#C78259;}
	.st13{fill:#D2723E;}
	.st14{fill:#C0744B;}
	.st15{fill:#CF7340;}
	.st16{fill:#C28560;}
	.st17{fill:#B57653;}
	.st18{fill:#2D3037;}
	.st19{fill:#84EFB2;}
	.st20{fill:#FAF1D2;}
	.st21{fill:#8C554D;}
	.st22{fill:#D7A686;}
	.st23{fill:#A46E64;}
	.st24{fill:#BD8766;}
	.st25{fill:#827E7E;}
	.st26{fill:#BD8867;}
	.st27{fill:#B58769;}
	.st28{fill:#B98766;}
	.st29{fill:#E2D1B5;}
	.st30{fill:#B3876A;}
	.st31{fill:#9F8D7F;}
	.st32{fill:#E5E5E5;}
	.st33{fill:#C5B7AC;}
	.st34{fill:#EA712E;}
	.st35{fill:#FDFDFD;}
	.st36{fill:#222731;}
	.st37{fill:#FFFFFF;}
	.st38{fill:#DADDDC;}
	.st39{fill:#CBCDCD;}
	.st40{fill:#AC8A72;}
	.st41{fill:#07000D;}
	.st42{fill:#AF592E;}
	.st43{fill:#B1836B;}
	.st44{fill:#C7B6B0;}
	.st45{fill:#DDCECA;}
	.st46{fill:#322320;}
	.st47{fill:#222D32;}
	.st48{fill:#F7F7F8;stroke:#9A999E;stroke-width:1.2169;stroke-miterlimit:10;}
	.st49{fill:none;stroke:#9A999E;stroke-width:1.2169;stroke-miterlimit:10;}
	.st50{fill:none;}
</style>
<g>
	<defs>
		<rect id="SVGID_1_" x="-0.5" y="-0.2" width="1366.5" height="899"/>
	</defs>
	<clipPath id="SVGID_2_">
		<use xlink:href="#SVGID_1_"  style="overflow:visible;"/>
	</clipPath>
	<g class="st0">
		<g>
			<rect x="182.6" y="-2.6" class="st1" width="1364.7" height="900"/>
			<path class="st2" d="M1224.6,647.8c17.5-41.9,35.4-83.7,52.4-125.8c15.7-38.7,41.9-71,62.4-106.8c5.5-9.7,12.7-17.6,21.4-24.7
				c23.5-19.2,46-39.5,72.8-54.2c2.6-1.4,5.6-3.1,7.1-5.5c16.1-24.9,42.6-36.9,65.7-53.1c10.4-7.4,21.5-14.2,27.4-26.5
				c-0.2-8,2.1-13,11.4-9.5c0,167.7,0,335.3,0,503c-2.4,13-0.5,26.1-1.1,39.1c0,12,0,24,0,36c0,13.6,0,27.2,0,40.8
				c-0.7,12.2,1.4,24.4-1.1,36.5c-93.3,0-186.6,0-280,0c-12.2-2.6-24.6-0.4-36.9-1.1c-12,0-23.9,0-35.9,0s-24.1,0-36.1,0
				c-7.8,0-15.6,0-23.4,0c-16.5,0-33,0-49.5,0c-12.2,0-24.4,0-36.6,0c-10.8,0-21.7,0-32.5,0c-39.1,0-78.2,0.6-117.2-0.2
				c-51.6-1.1-103.1-0.8-154.7-1c-12.2,0-14.2-1.9-17-14.9c0.3-21.9-3.7-43.6-2.8-65.6c0.4-8.6,2.9-15.4,9.6-20.7
				c16.3-12.9,32-26.6,49.3-38.1c9.1-9.3,19.6-12.1,32.9-9.9c13.4,2.2,26.5,4.4,39.4,9.4c38.9,14.9,79.4,24.8,119.1,37.1
				c8.1,2.5,14.8,0.8,21-4.5c11.4-9.9,22.6-20,34.3-29.6c28.4-23.3,60.4-41.6,90.1-63.2c9.2-3.9,16.5-11,25.1-15.9
				c24.3-10.5,49.5-18.5,73.7-29.2C1217.8,648.4,1221.1,647.9,1224.6,647.8z"/>
			<path class="st3" d="M623.3,897.3c-84.2,0-168.4,0-252.6,0c-4.7-3.6-5.1-8.8-5.3-14.1c-0.4-10.8,0.2-21.7-0.6-32.5
				c0.2-16.2,6.1-20.6,20-13.6c8.9,4.4,18.3,4.6,27.6,6c2.7,0.4,5.6,0.2,6.6-2.9c1-3-1.1-5-3.2-6.7c-6.3-5.1-14-7.5-21-11.2
				c-12.5-6.6-12.8-12-1.1-20.3c10.4-7.3,20.8-14.5,33.6-17.2c-2.2-5.5-5.1-4.6-7.5-4.1c-12.8,2.5-25.7,1.4-38.6,1.3
				c-4.6,0-9.4-0.4-11.6-5.4c-2.1-4.8,0.5-8.5,3.1-12.5c7.8-12,18.5-19.8,31.8-24.5c4.7-1.6,9.2-3.7,12.4-7.7c1.9-2.4,4-5.2,1.9-8.2
				c-2.3-3.2-5.6-1.6-8.2-0.2c-8.6,4.8-17.1,9.8-26.5,13c-2.9,1-5.7,2.2-8.7,2.7c-9.1,1.5-15.8-4.6-13-13.1
				c8.6-26.1,21.4-48.5,51.5-54.6c4.3-0.9,8-0.2,12.1,1.1c11.2,3.5,22.5,7.1,34.5,3.8c23.7,4.5,47,10.2,70.5,15.6
				c26,5.9,52.1,11.5,78.1,17.4c5.9,6.2,7,13.7,5.7,21.9c-6.2,10.2-17.4,9.4-26.9,11.8c-6.5,1.6-13.3,2.6-20.1,3
				c-7.8,0.5-11.7,4.8-11.6,12.5c0.2,13-0.2,25.5-9.5,36.2c-3.9,4.5-1.2,9.4,2.7,13.1c6.9,6.5,11.3,14,11.6,23.7
				c0.1,4.2,2.4,7.9,5,11.2c4.4,5.8,7.3,12,8.9,19.3c2.1,9.9,8.8,16.5,19.1,18.7c6.7,1.4,13.4,2.4,20.2,2.6
				c4.5,0.1,9.2,0.4,11.7,5.4C626.9,891.9,625.8,894.8,623.3,897.3z"/>
			<path class="st4" d="M1548.7,166.8c0,35.5,0,71,0,106.5c-8.5,0.6-9.8,7.3-16.4,9.5c-44.6,10.5-88.7,7.1-132.6-2.2
				c-13.4-2.8-19.4-9.1-18.7-19.8c0.8-11.6,2.1-22.8,7.3-33.9c3.6-7.6,7.4-15.4,8.7-23.3c2.9-17.3,1.7-33.8-15.6-48.7
				c-14.4-12.4-24.7-27.1-38.3-39.9c-18.5-17.5-17-35.3-4.9-53.9c3.4-5.2,6.3-10.6,10.2-15.7c9-11.7,9.2-23.3,1.2-35.3
				c-2.7-4.1-4.5-8.6-6.7-12.9c67.5,0,134.9,0,202.4,0c3.6,15.1,0.7,30.3,1.6,45.5c0,10.7,0,21.3,0,32c1,11-2.1,22,1.6,32.9
				C1548.7,127.4,1548.7,147.1,1548.7,166.8"/>
			<path class="st5" d="M459.5,682c-11.6,1.7-22.3-2.8-33.3-5c-12.8-2.5-38.1,8.3-44,19.7c-4.5,8.7-9,17.5-13.2,26.4
				c-1.6,3.3-4.4,7.2-0.9,10.4c3.4,3.1,7.2,0,10.6-1.1c11.6-3.8,22.2-9.7,32.4-16.2c5-3.1,9.4-4.7,13.9,0.9c4,4.9,3.7,8.7-0.1,14
				c-5,6.9-11.2,11.3-19,13.6c-13.5,4-22.7,13.1-30.6,24c-4.4,6.1-2,8.1,4.4,7.9c14.7-0.4,29.6,1.8,44-3c6.2-2.1,10.2-0.6,12,6.1
				c1.7,6.5-0.3,10.1-7.2,11c-15.9,2-26.8,13-40.5,21.4c10.4,7.3,22.1,9.8,31.6,16.6c5.9,4.2,9.9,8.9,7.3,16
				c-2.7,7.4-9.6,4.9-14.7,4.1c-10.7-1.8-22-1.2-31.6-7.9c-8-5.6-10.5-1.6-10.2,6.5c-1.1,0.4-2.4,0.4-3.3-0.2
				c-11.9-9.1-12-9.1-14.9,6.2c-1.8,9.3-3.2,18.6-4,28.1c-0.8,8.4-3.8,15.5-13.9,15.9c-19.7,0-39.5,0-59.2,0
				c-6.6-7.1-17.5-9.2-22-18.8c-10.6-23-17-45.5,2.1-67.8c5.5-6.5,8.7-14.9,13-22.4c3.5-9,9.2-16.3,16.2-22.9
				c14.6-13.7,17.7-32.9,23.7-50.7c6.5-19.2,10.5-39.2,22.9-56.3c6.6-9.1,13.9-13.2,24.6-12c8.3,0.9,16.5,2.2,24.7,3.5
				c3.4,0.5,6.8-1,10.2,0.2c6.6,5.3,13.2,6.1,20.7,1.3c4.1-2.6,9.1-3.2,14.2-3.3c16.4-0.2,17.2,0.2,15.9,16.9
				c-0.5,6.3,3.5,6.6,7.4,7.9C453.7,674.3,459.8,674.5,459.5,682z"/>
			<path class="st6" d="M623.3,897.3c0-2.9,0.1-5.9,0.1-8.8c12.1-6.6,25.2-3.9,37.6-2.5c17,2,34.1,0,51,2.4
				c4.5,0.6,8.1-1.6,10.3-5.6c1.4-2.7,2.6-5.5,6.1-6.3c4.5,16.2,4.5,16.1,22.6,16.3c87.2,0.8,174.4,1.7,261.5,2.5
				c1.6,0.6,1.6,1.3,0,2C882.8,897.3,753.1,897.3,623.3,897.3z"/>
			<path class="st7" d="M1080.8,895.2c16.8,0,33.5,0.1,50.3,0.1c1.6,0.8,1.5,1.4-0.1,2c-16.7,0-33.4,0-50.1,0
				C1079.2,896.6,1079.2,895.9,1080.8,895.2z"/>
			<path class="st8" d="M1543,860.9c0-13.7,0-27.3,0-41c0.7-1.6,1.4-1.6,2.2,0c0,13.7,0,27.3,0,41
				C1544.4,862.4,1543.7,862.4,1543,860.9z"/>
			<path class="st9" d="M1542.9,783.5c1-12.9-2.4-26,2.2-38.7c0,12.9,0,25.8,0,38.7C1544.4,785,1543.7,785,1542.9,783.5z"/>
			<path class="st10" d="M1543,860.9c0.7,0,1.4-0.1,2.2-0.1c0,11,0,22-0.1,33c0,1.4,1.4,4.2-2.2,3.4
				C1542.9,885.1,1542.9,873,1543,860.9z"/>
			<path class="st11" d="M1226.4,895c12.1,1,24.6-2.5,36.5,2.2c-12.1,0-24.3,0-36.4,0C1224.9,896.6,1224.9,895.8,1226.4,895z"/>
			<path class="st12" d="M1080.8,895.2c0,0.7,0,1.4,0.1,2.1c-12.1,0-24.3,0-36.4,0c-1.6-0.6-1.6-1.3,0-2
				C1056.5,895.2,1068.6,895.2,1080.8,895.2z"/>
			<path class="st13" d="M1542.9,783.5c0.7,0,1.5,0,2.2,0c0,12.1,0,24.3,0,36.4c-0.7,0-1.4,0-2.2,0
				C1542.9,807.8,1542.9,795.6,1542.9,783.5z"/>
			<path class="st14" d="M1153.6,895.2c12.1,0,24.3,0,36.4-0.1c1.6,0.7,1.6,1.4,0.1,2.1c-12.1,0-24.3,0-36.4,0
				C1152.1,896.6,1152,895.9,1153.6,895.2z"/>
			<path class="st15" d="M1190.1,897.3c0-0.7,0-1.4-0.1-2.1c12.1,0,24.3-0.1,36.4-0.1c0,0.7,0,1.5,0.1,2.2
				C1214.3,897.3,1202.2,897.3,1190.1,897.3z"/>
			<path class="st16" d="M1044.3,895.2c0,0.7,0,1.3,0,2c-10.6,0-21.2,0-31.9,0c0-0.7,0-1.3,0-2
				C1023.1,895.3,1033.7,895.3,1044.3,895.2z"/>
			<path class="st17" d="M1153.6,895.2c0,0.7,0,1.4,0.1,2.1c-7.6,0-15.2,0-22.8,0c0-0.7,0.1-1.3,0.1-2
				C1138.5,895.2,1146.1,895.2,1153.6,895.2z"/>
			<path class="st18" d="M500.9,379.2c-1.8,0.3-3.8,0.1-5.4,0.8c-27.8,13.9-57.9,9.3-87.3,9.8c-2.1,0-4.7-0.1-6.3-1.2
				c-22.1-15.7-46.5-29-60-53.5c-5.2-9.4-2.6-20.2-0.8-30.3c1.9-10.5,4.4-20.9,7.1-31.2c1.8-6.6,1-12.1-4.9-16.1
				c-17.3-11.8-22.5-28-21.2-47.9c0.7-10.4,1.3-20.4,5.9-29.9c7-14.3,11.3-29.2,10.4-45.3c-0.3-4.7,0.5-9.3,3.4-13.2
				c12.4-16.9,17.4-36.5,22.9-56.1c7.6-26.8,10.6-29.3,38.4-25.9c22.2,2.7,42.3,0,59.2-15.3C482.9,5.4,506.8,0.6,534.6,1
				c29.2,0.4,56.4,6.4,83.8,14.5c4.9,1.4,10.1,3.5,14.9,3.1c37.4-3.2,67.3,13.7,96,33.4c15.8,10.8,31.3,22.2,45.5,35.1
				c9.2,8.4,10.1,17.3,7.5,27.9c-2.7,11-9.1,20.2-15.6,29.2c-9.2,12.8-7.1,27.1-6.8,41.2c0.1,4.7,4.7,7.1,8.2,9.5
				c6.5,4.5,9.1,10.1,9.1,18.1c0,31.6,0.5,63.3,6.6,94.5c1.7,8.7,1.6,16.5-10.8,17.3c-4.4,0.3-6.6,3.8-8.6,7.5
				c-3.7,7-8,13.6-11.3,20.7c-5.2,11.1-11.3,18-25.6,12.7c-7.3-2.7-24.9,10.2-27,17.8c-3.8,14-6.4,15.3-20.2,9.8
				c-4-1.6-7.8-3.9-11.7-5.9c-13.2-6.8-15.6-6.3-24.5,5.2c-1.7,2.2-3.6,4.3-5.4,6.4c-5.1-2.9-4.4-9.7-10.1-11.3
				c-3.2-4.1-0.6-7.6,1.7-10.6c6.1-7.8,9.6-16.7,12.4-25.9c10.3-34,16.5-68.5,10.3-103.9c-2.7-15.4-9.7-29.7-16.6-43.8
				c-1.6-3.3-4.8-5.2-8.6-6.1c-16.4-4-32.9-4.9-49.9-3.9c-19.7,1.2-38.4,4.7-56,13c-17.1,8-31.7,18.7-38.8,37
				c-2.2,5.8-3.6,11.4-3.7,17.6c-0.4,19.9-0.6,39.8,2.6,59.5c2.6,16.2,9.9,31,19.1,44.9c2.3,3.5,6.4,6.1,5.3,11.1
				C505.5,378.7,503.8,380,500.9,379.2z"/>
			<path class="st19" d="M388.8,654c-2.5,0.8-5,2.5-7.2-0.6c-4.4-3.3-7.2-7.6-8-13.2c-1.8-12.1-7-22.1-17.6-29
				c-18.7-12.3-29.7-31.2-40.8-49.6c-8.9-14.8-22.4-24.4-35.1-35c-3.4-2.8-8.1-1.9-11.5-4.5c-6.8,0.4-4.8-4.6-4.3-7.9
				c4.1-27,8.7-54.5,20.6-78.9c7.9-16.4,20-31.9,39.8-38.2c38.4-12.2,77.8-9.9,117.1-8.5c11.3,0.4,22.7,1.1,34,0.9
				c4.7,0.2,5.6,3.6,5.3,7.1c-4.2,39.5,13.6,71,36.3,100.7c8.3,10.8,16.3,21.9,24.1,33c8.1,11.5,18.5,20.1,31.1,25.7
				c17.8,8,35.2,17.4,55.7,17.5c11.8,0.1,22.3-3.7,32.8-7.9c6.1-2.4,9.1-7.8,11.1-13.6c11.5-33.1,25.5-65.7,23.3-102
				c-0.1-1.9,0.8-3.7,1-5.6c-1.2-3.1-2.4-6.2-4.1-10.4c8.8-0.3,15.3,3.9,22.2,6.3c18.6,6.4,36.9,14,55.8,19.3
				c16.6,4.7,28.3,14.3,35.6,29c14.2,28.7,30.3,56.9,33.6,89.7c-0.7,4.2-3.4,6.8-7.6,6.9c-12.3,0.2-24.1,2.9-35.4,7.5
				c-56.9-5-110.8,13-165.8,22.1c-60.1,10-119.6,23.5-179.9,32.1C430.4,649.8,409.9,655.6,388.8,654z"/>
			<path class="st20" d="M388.8,654c48.8-9.1,97.5-18.4,146.3-27.4c71.9-13.3,143.9-26.2,215.8-39.8c15.3-2.9,30.2,2.3,45.3,0.7
				c11.1-1.6,22.3-0.5,33.4-2c3.9-0.5,7.6,0.5,9.2,4.9c24.4,2.1,48.8,4.3,73.3,6.2c15.4,1.2,30.9,2,46.3,3
				c41.5,3.2,82.9,8.1,124.7,7.8c3,0,6-0.1,9,0.9c2.3,1.5,4.9,2.6,5.3,5.8c-1.4,4.2-5.6,5.6-8.3,8.4c-42.9,10.5-86.7,16.4-130,25.1
				c-55.2,11.1-110.7,21-165.9,31.9c-5.2,1-10.3,2.3-15.4,3.9c-12.6-0.8-24.7,1.2-36,7c-5.9,1.5-12,0.8-17.9,1.4
				c-7.1,2-14.2,2.1-21.2,0c-23.7-7.1-48.3-6.6-72.6-9c-2.7-0.3-5.3,0-7.7,1.2c-3.4,1.7-7.2,3.7-6.5,8.2c0.7,4.4,5.1,3.4,8.3,4.1
				c6,1.2,14.5-2.2,16.1,8c-3.1,7.9-11.4,6.6-17.2,9.6c-4.2,1.1-8.4,1.3-12.5-0.8c-1.1-0.5-2.1-1.1-3.1-1.8
				c-4.7,2.7-9.3,1.5-14.2,0.3c-42.6-9.9-85.3-19.6-128-29.3c-1.8-0.4-3.8-0.2-5.6-0.2c-9.9-5-21.3-4.9-32.4-9.3
				c4.4-4.5,10.1-7.1,10.9-14.3c0.6-5.4-0.6-6.8-5.4-7c-7.7-0.4-15.1,0.2-21.9,4.1C403,660,395.7,660.8,388.8,654z"/>
			<path class="st5" d="M505.4,371.4c-22.7-23.7-31.4-52.7-31.8-84.7c-0.2-15.1-0.6-30.3-0.3-45.4c0.2-12.2,5.3-23.7,13.1-31.9
				c21.7-23,48.7-36.3,80.8-38.5c22.3-1.5,44.5-3.3,66.6,2.6c6.8,1.8,10.8,4.6,13.9,11.2c13,27.5,20.9,56.3,18.5,86.6
				c-3.1,39.2-7,78.6-33.1,111.1c-0.9,0.9-1.9,1.8-2.8,2.7c-7.3,34.1-35,43.9-62.9,41.4c-4.3-0.4-8-1.8-11.5-4.3
				c-16.5-12-32.4-24.7-46.1-39.9C506.7,379.3,504.3,376.1,505.4,371.4z"/>
			<path class="st21" d="M505.4,371.4c15.1,13.8,29.3,28.4,45.7,40.9c18.7,14.2,49.6,11.6,64.2-7.1c5.1-6.5,10-13.3,14.9-20
				c-0.2,11.4,3,22.3,4.7,33.4c0.6,3.6,2.6,6,5.6,8c17,11.3,35.3,18.2,56,17.7c7.1,13.3,5,27.5,2,40.8
				c-5.7,25.5-12.9,50.8-23.7,74.7c-6.9,15.3-23.3,17.8-36.6,18.2c-41.8,1.2-78.1-13-103.4-48c-18.4-25.3-39.3-48.8-51.4-78.7
				c-7.4-18.1-9.2-35.6-7.3-54.2c0.3-2.6,1.7-5.2-0.4-7.6c8.9-4.3,17.4-9.2,24.9-15.7C502.2,372.9,503.8,372.2,505.4,371.4z"/>
			<path class="st21" d="M268.5,522.1c4.6-5.8,8-5.7,14.6-0.9c22.3,16.1,37.8,37.5,51.6,60.6c5.1,8.5,11.6,16.1,20.1,21.2
				c19.1,11.6,25,29.9,26.9,50.4c-7.5,0.4-15,0.4-22.5-1.3c-9.9-2.3-17.2,0.1-23.9,9.7c-11.6,16.7-16.5,35.6-21.4,54.4
				c-7.6,29.1-20.7,54.1-45.6,71.9C268.3,699.5,268.4,610.8,268.5,522.1z"/>
			<path class="st22" d="M1092,612.4c-44.9-0.6-90,2-133.5-12.7c7.9,0.4,14.6-1.8,20.4-7.6c6.6-6.6,15-10.2,24.4-10.6
				c15.7-0.8,30.5-5.3,45.1-10.5c5.8-2,11.6-3.6,13.8-10.4c1.5-4.7,5.5-4.4,9.4-4c14.7,1.5,29.3,2.8,44,4.4
				c33.4,3.7,57.2,24.1,78.7,47.3c11.3,12.1,20.3,26.3,30.3,39.6c-6.4,9.7-17.5,11.1-27,15c-18.1,7.5-36.6,13.8-55,20.6
				c-13.7-0.8-18.6-5.4-21.3-18.3c-2-9.5-3.5-19.4-9.5-27.6c-2.1-5.9-3.4-12.2-8.7-16.4c-1.2-1.6-2.2-3.3-3.2-5
				C1098.4,612.3,1096,610.7,1092,612.4z"/>
			<path class="st23" d="M838.9,590.5c-14.3,0.1-28.5-0.6-42.6-2.9c13.9-5.5,29.1-4.9,43.2-9.2C844.6,582.6,850.7,587,838.9,590.5z"
				/>
			<path class="st24" d="M1107.9,615.3c3,6.1,6,12.2,9,18.2c0.2,15.5,5,30.4,6.3,45.8c0.6,7.1,0.6,13.5-3.4,19.5
				c-8.7,6-17.2,12.4-26.1,18.1c-36.8,23.3-71.5,49.5-103.4,79.2c-4.4,4.1-8.7,5.1-14.3,3.4c-45.5-13.9-91.9-25-136.2-43.1
				c-13.2-5.4-27.5-4.6-41.3-6.4c-6.3-0.8-10.4,5.6-15.6,8.5c-10.2-3.5-14.3-13.2-19.6-20.9c-9.3-13.5-19.5-25.6-33.8-34
				c-3.2-1.9-6.1-4.5-8-7.8c-1.6-2.8-2.4-5.9,2.3-6.7c5.5-1.2,11.1-1.9,16.2-4.6c12.3-0.4,24.1-3.1,35.8-6.5
				c52.6-10.3,105.1-20.7,157.7-31c34.5-6.7,68.9-13.4,103.4-20c16.9-3.2,33.9-6.3,50.8-9.5C1094.6,617.9,1101.2,615.9,1107.9,615.3
				z"/>
			<path class="st22" d="M723.2,690.1c1.8,5,6.3,7.4,10.4,9.6c22.1,12.3,33.1,34.4,47.5,53.5c1.1,1.4,1.2,3.5,1.8,5.3
				c-16.2,12.9-32.3,25.9-48.7,38.6c-5.9,4.5-8.7,9.7-8.3,17.3c1.1,20.7,1.7,41.4,2.5,62.1c-0.1,3.4-0.3,6.8-0.3,10.1
				c0,5.6-2.6,8.7-8.2,8.2c-32.1-3.1-64.5-1.9-96.5-6.3c-9.8-0.7-19.6-0.1-29.4-2.1c-13.2-2.7-23-11.7-25.2-25.3
				c-0.7-4.3-1.9-8.2-4.6-11.4c-5.7-6.9-9.5-14.1-9.8-23.5c-0.2-8.7-7.6-13.7-13.5-18.8c-5-4.2-6.9-8.4-1.8-13.1
				c11.3-10.4,12.5-23.6,11.3-37.5c-1-11,4-16.1,14.9-16.5c16-0.6,31.4-4.7,46.6-9.2c1.8-3.3,3.4-6.7,7.6-7.6
				c10.7-2.5,16-10.3,19.6-19.9c-7.6-3.7-15.6-1.3-23.4-1.9c-4.8-0.4-9.6-1.6-11.4-6c-1.7-4.2,3.4-6.1,5.5-9
				c6.5-9.1,15.1-9.5,25.8-9.2c29.6,0.8,58.1,8.4,87.4,10.6C725,688.5,725,689.3,723.2,690.1z"/>
			<path class="st25" d="M1119.8,698.8c-1.5-18.1-3-36.2-4.4-54.3c-0.3-3.8-0.8-7.6,1.5-11c1.6,5.8,3.8,11.4,4.8,17.3
				c2.4,13.9,7.9,25.5,20.9,32.5C1135,688.5,1127.4,693.7,1119.8,698.8z"/>
			<path class="st26" d="M639.2,703.4c3,10.6-0.3,18.3-10.2,22.2c-5.5,2.2-11.3,3.6-17,5.3c-1.5-6.6-3-13.2-4.6-19.8
				c0.6-0.5,1.3-0.7,2.1-0.7c3.6-2.6,8.4,0.7,11.9-2.3C627.3,706.6,633.2,705,639.2,703.4z"/>
			<path class="st27" d="M775.8,677.9c-11.1,6.9-23.7,7.4-36.2,7.6l-0.1-0.4C751.4,681.5,763.5,679.5,775.8,677.9z"/>
			<path class="st28" d="M1107.9,615.3c-6.5,2.6-13,6.2-20.2,2.1c3-0.8,6.1-1.5,9.1-2.3c1.4-1.5,2.9-1.5,4.5-0.3
				C1103.5,615,1105.7,615.1,1107.9,615.3z"/>
			<path class="st29" d="M1101.3,614.8c-1.5,0.1-3,0.2-4.5,0.3c-1.6-0.9-3.2-1.8-4.8-2.8c3.2-0.6,6.3-1.4,9.5-1.8
				c1.2-0.2,3.4-0.5,3.1,1.6C1104.4,613.2,1102.4,613.9,1101.3,614.8z"/>
			<path class="st30" d="M739.5,685l0.1,0.4c-5,3.2-10.6,4.1-16.4,4.6c0-0.7,0-1.5-0.1-2.2C728.6,686.9,734,686,739.5,685z"/>
			<path class="st31" d="M621.4,708.2c-3.6,2.8-7.7,2.6-11.9,2.3C613.1,708,617.2,708.1,621.4,708.2z"/>
		</g>
		
			<image style="overflow:visible;" width="626" height="417" xlink:href="D0E08732.jpg"  transform="matrix(2.0835 0 0 2.0835 210.9982 20.6616)">
		</image>
		<polyline class="st32" points="129.6,1 1363.8,1 1366,671.2 -0.5,671.2 -0.5,-0.2 		"/>
		<polygon class="st33" points="-0.5,671.2 834.7,570.5 1548.7,649.9 1548.7,897 -0.5,898.8 		"/>
		<polyline class="st34" points="896.3,221.2 1478.1,200.7 1476.5,221.2 894.3,236.7 896.3,221.2 		"/>
		<polygon class="st35" points="675.4,463.9 675.4,1 0.2,1 -0.5,542.6 		"/>
		<polyline class="st32" points="1202.1,897 1256,858.7 819.9,745.3 753.7,788.7 731.4,815.1 978.2,897 		"/>
		<polygon class="st36" points="843.7,570.5 1484.6,643.1 1517.2,196.1 1517.2,174.2 1491,164.4 881,193 865.1,200.7 843.7,561.6 		
			"/>
		<polygon class="st37" points="872.9,543.7 1447.2,604.1 1478.1,200.7 896.3,221.2 		"/>
		<path class="st38" d="M1484.6,643.1v51.5l-6.5,26.8c0,0-4.9,8.6-12.2,7.9c-7.3-0.6-613.3-81-613.3-81s-6.9-4.1-8.9-11.8
			s0-66.1,0-66.1L1484.6,643.1z"/>
		<polygon class="st39" points="1025.4,770 1189.7,801.7 1206.7,801.7 1231,801.7 1333.3,757.9 1341.8,739.6 1341.8,713.1 
			1183.6,692.2 1180.5,711.6 1175.5,721.4 1163.7,729.3 		"/>
		<path class="st40" d="M387.1,89.8c0,0,1.2-4.9,9.7-7.3c8.5-2.4,21.9-1.2,26.8,0c4.9,1.2,25.6,29.2,28,34.1
			c2.4,4.9,26.8,62.1,26.8,65.7c0,3.7,4.9,15.8,0,26.8s-0.5,29.2,2.2,37.7c2.7,8.5,33.2,41.3,38,48.7c4.8,7.3,3.9,14.4,0,18.3
			c-3.9,3.8-22.9,14.5-25.6,13.4c-2.7-1.1-7.3,1.2-8.5,6.1s4.9,9.7,4.9,13.4c0,3.7,1.2,11-2.4,14.6c-3.7,3.7-6.1,11-3.7,14.6
			c2.4,3.7,7.5,4.6,7.3,9.7c-0.2,5.1-3.7,7.3-6.1,14.6c-2.4,7.3-1.2,17,0,24.3c1.2,7.3,3.7,13.4-2.4,21.9
			c-6.1,8.5-11,17.9-18.3,17.5s-75.4-4.1-76.7-6.5c-1.2-2.4-14.6,23.1-19.5,31.6c-4.9,8.5-20.7,21.4-20.7,27.1c0,5.7,0,27.7,0,27.7
			l-60.8-32.9c0,0,23.1-41.4,30.4-64.5c7.3-23.1,21.9-45,21.9-70.6c0-25.6-4.9-57.2-4.9-76.7c0-19.5-1.2-18.3,7.3-34.1
			c8.5-15.8,11-24.3,11-38.9c0-14.6-1.2-20.7-9.7-43.8c-8.5-23.1-17-25.6-8.5-41.4c8.5-15.8,14.6-20.7,28-17
			c13.4,3.7,18.3-2.4,19.5-12.2C382.2,102,387.1,89.8,387.1,89.8z"/>
		<path class="st41" d="M314.3,218.2l86-8.9c0,0,3.2-4.1,11.4-8.1c8.1-4.1,20.3-8.1,24.3-8.1s23.5,2.4,27.6,6.5
			c4.1,4.1,9.7,10.5,9.7,10.5l14.6,0.8c0,0-0.7-4.1,2.5-10.2c3.2-6.1,17.3-5.4,19.8-4.6c2.4,0.8,4.5,5.1,6.9,9.5s4.1,46.6,4.1,54.8
			c0,8.1-8.1,22.7-8.1,22.7H509l-16.2-17l-9.7-13.8l-0.8-32.5h-7.3c0,0,0.8,26.8,0.8,33.3s-4.9,26.8-6.5,30
			c-1.6,3.2-3.4,5.8-8.2,9.1c-4.9,3.2-8.3,3.9-15.8,3.2c-5.4-0.5-18.2-1.8-22.2-9.1s-14.6-29.2-15.4-38.1c-0.8-8.9-3.2-17-3.2-17
			l-11.4-3.2l-78.7,7.3V218.2z"/>
		<polygon class="st42" points="285.7,486.5 376.2,567.6 433.7,611.2 447.1,657.6 403.6,671.2 387.7,671.2 334.2,623.6 243,578.9 
			262.1,493.9 		"/>
		<path class="st43" d="M563,759.7l67.1,9.9h64.2l38.5-9.9l31.2-12.8h29.3c0,0,20.2-4.9,22,0c1.8,4.9,40.3,32.5,40.3,32.5l9.6,19.5
			l-26.1-9.7l-14.7-6.5l-55,16.2L741.9,809h25.7h34.8l25.7-8.5h9.2l1.8,8.5l-23.8,27.2h-91.9l-19.9-25.6l-42.2-1.6h-38.5L563,759.7z
			"/>
		<path class="st43" d="M867.3,882.2v-21c0,0-6.2-16.9-4.2-28.4c2-11.6,9.8-28,15.3-30.9c5.5-2.8,16,7.1,16,7.1s18.3-31.8,24.4-34
			c6.1-2.3,11.7,6.6,11.7,6.6s12.5-6.6,17.5-6.6c5,0,15.5,11.4,15.5,11.4s11.9-0.5,16,0.6c4.2,1.1,6.1,15,6.1,15s9.4-2.3,12.7,3.5
			c3.3,5.8-6.5,18.1-6.5,18.1s3,13.1-11.2,35.8c-14.1,22.7-26.1,30.7-26.1,30.7l-11.5,7.1l-56.7-22.3L867.3,882.2z"/>
		<path class="st44" d="M437.2,288.6c0,0-8.1-7.3-10.5-12.2c-2.4-4.9-8.9-30.8-8.9-27.6c0,3.2,0-24.9,0-24.9s2.8-13.8,8-19.5
			c5.3-5.7,9.9-6,17.2-6s20.8,17,22.7,31.1c1.9,14.1,0,20.4,0,20.4s-0.6,3.3-2.6,22.8S437.2,288.6,437.2,288.6z"/>
		<path class="st45" d="M496.4,267.5c0,0-5.3-12.3-5.7-25.1s-2.4-38.1,5.7-40.6c8.1-2.4,16.2,0,16.2,0s4.1,8.9,4.1,12.2
			c0,3.2,0,39.7,0,45.4c0,5.7-4.1,13-4.1,13C507.8,271.8,506,277.2,496.4,267.5z"/>
		<path class="st34" d="M427.2,636.6l66.1,32.5l34,26l17.3,19.5l13.9,14.6l24.3,17.8l22.5,26l17.3,9.7l27.7,26.4
			c0,0,27.7,3.7,36.4,0c8.7-3.7,39.9,1.6,39.9,1.6l26,35.3l26,27.6l22.5,9.7h57.2l41.6-14.6l43.3,28.4H766.3H374.7H182.9l7-203.6
			l29.9-36.5l-2.7-31.6l3.5-63.6l91.8,40.9l57.2,34.1H427.2z"/>
		<path class="st46" d="M443.9,108.5l3.2-32.2c0,0-13.1-14.4-13.2-18s-22.6-17.6-22.6-17.6S363.9,0.5,287.6,1
			C214.4,1.5,133,40.3,133,40.3S68,121,53,169.4S0,468.1,0,468.1l-0.5,261.2v169.5l147.1,3.8L218,899c0,0,11.4-99.3,11.4-105.3
			s-8.9-40.1-8.9-40.1l-0.6-41.1l11-50.7l-7.6-14.4l7.6-28.8c0,0,7-0.5,7-4.1c0-3.6,1.9-14.7,1.9-14.7l14.3-17.9
			c0,0-3.5-19.2-1.9-25.2s14.2-13.7,14.2-13.7l25.9-27.5l22.6-38.5l14.1-37.3c0,0,10.9-30.4,11.4-32.3c0.5-2,8.3-20.8,8.3-24.4
			s1.5-22.8,1.5-33.7s-1.6-53.5-6.1-61.3c-4.5-7.8,6.7-21.3,9.5-31.4c2.8-10.1,2.7-34.8,0.9-40.1c-1.8-5.3-8.2-24.8-10.8-29.3
			s-0.6-42.7-0.6-42.7l27.3-8.6c0,0,10.7,2.4,16.9-2.8c6.2-5.3,9.2-19.9,9.2-19.9l17.1-18.6c0,0,1-0.9,8.6-1.2
			S443.9,108.5,443.9,108.5z"/>
		<circle class="st37" cx="919.9" cy="278.2" r="18.3"/>
		<polygon class="st34" points="896.3,221.2 1478.1,200.7 1475.3,236.7 894.3,248.5 		"/>
		<polygon class="st47" points="894.3,248.5 996.2,246.4 975.1,554.5 872.9,543.7 		"/>
		<polygon class="st48" points="996.2,520.7 1010.4,264.9 1445.3,256.2 1417.7,562.7 		"/>
		<polyline class="st49" points="1007.8,312.4 1439.3,322.7 1434.5,376 1005.5,353.1 1002.7,403.8 1428.5,442.8 1422.9,504.3 
			999.4,461.9 		"/>
		<rect x="182.6" y="134.4" class="st50" width="1395.9" height="667.5"/>
		<rect x="182.6" y="-89.7" class="st50" width="1397.7" height="986.7"/>
		<rect x="-0.5" y="-0.2" class="st50" width="1366.5" height="899"/>
	</g>
</g>
</svg>
